<?xml version="1.0" standalone="no"?>
<!DOCTYPE svg PUBLIC "-//W3C//DTD SVG 20010904//EN"
 "http://www.w3.org/TR/2001/REC-SVG-20010904/DTD/svg10.dtd">
<svg version="1.0" xmlns="http://www.w3.org/2000/svg"
 width="620.000000pt" height="214.000000pt" viewBox="0 0 620.000000 214.000000"
 preserveAspectRatio="xMidYMid meet">

<g transform="translate(0.000000,214.000000) scale(0.100000,-0.100000)"
fill="#000000" stroke="none">
<path d="M1105 1535 c-156 -91 -231 -140 -233 -153 -2 -15 23 -32 120 -84
l123 -65 3 -71 c3 -65 5 -72 25 -76 23 -5 184 -26 199 -26 4 0 8 72 8 160 0
121 3 160 13 160 6 0 59 -18 117 -39 101 -37 105 -40 108 -70 2 -17 5 -31 8
-31 2 0 56 26 119 57 95 48 115 62 113 78 -2 14 -68 59 -233 157 -126 76 -237
138 -245 137 -8 0 -118 -60 -245 -134z"/>
<path d="M2960 1624 c-83 -22 -114 -44 -118 -82 -3 -26 1 -32 21 -37 l24 -7
-17 -56 c-31 -99 -53 -209 -47 -226 4 -10 18 -16 37 -16 28 0 34 5 54 53 13
28 40 100 61 159 33 95 40 108 64 113 20 4 33 17 45 46 30 68 -7 84 -124 53z"/>
<path d="M3183 1630 c-12 -5 -29 -19 -37 -32 -26 -40 -108 -301 -110 -348 -1
-42 1 -45 27 -48 39 -5 53 10 77 83 23 69 32 80 72 90 l27 7 -25 -76 c-28 -84
-27 -106 8 -106 47 1 75 39 96 130 11 47 35 129 52 183 17 54 29 105 26 113
-7 18 -46 18 -70 1 -10 -7 -26 -44 -37 -81 -10 -38 -20 -70 -21 -71 -9 -7 -68
-13 -68 -7 0 4 12 40 27 80 22 62 24 75 12 83 -17 11 -27 10 -56 -1z"/>
<path d="M3960 1624 c-83 -22 -114 -44 -118 -82 -3 -26 1 -32 21 -37 l24 -7
-17 -56 c-31 -99 -53 -209 -47 -226 4 -10 18 -16 37 -16 28 0 34 5 54 53 13
28 40 100 61 159 33 95 40 108 64 113 20 4 33 17 45 46 30 68 -7 84 -124 53z"/>
<path d="M4753 1630 c-12 -5 -29 -19 -37 -32 -26 -40 -108 -301 -110 -348 -1
-42 1 -45 27 -48 39 -5 53 10 77 83 23 69 32 80 72 90 l27 7 -25 -76 c-28 -84
-27 -106 8 -106 47 1 75 39 96 130 11 47 35 129 52 183 17 54 29 105 26 113
-7 18 -46 18 -70 1 -10 -7 -26 -44 -37 -81 -10 -38 -20 -70 -21 -71 -9 -7 -68
-13 -68 -7 0 4 12 40 27 80 22 62 24 75 12 83 -17 11 -27 10 -56 -1z"/>
<path d="M3492 1613 c-32 -11 -43 -21 -48 -41 -3 -15 -18 -56 -33 -92 -28 -64
-44 -124 -56 -207 -6 -37 -4 -43 20 -59 21 -13 39 -16 92 -11 81 8 117 34 99
72 -9 19 -18 23 -53 22 -24 0 -46 3 -50 7 -13 12 26 76 46 76 33 0 51 11 67
41 l15 29 -41 0 c-46 0 -47 3 -21 47 13 21 31 33 53 38 45 10 68 32 68 67 0
28 -1 28 -57 27 -32 0 -77 -7 -101 -16z"/>
<path d="M4188 1613 c-40 -13 -47 -20 -51 -47 -3 -17 -21 -70 -42 -119 -24
-59 -38 -109 -42 -157 -6 -68 -5 -70 21 -80 53 -20 160 -6 185 24 7 8 9 25 5
41 -6 23 -11 26 -34 21 -15 -3 -39 -2 -54 2 l-26 7 18 35 c12 24 27 37 49 42
29 8 63 40 63 60 0 5 -16 8 -35 8 -23 0 -35 5 -35 14 0 26 39 63 80 75 43 13
68 46 57 75 -8 21 -95 20 -159 -1z"/>
<path d="M4485 1611 c-88 -39 -146 -138 -153 -257 -4 -73 -2 -83 19 -107 39
-45 138 -49 191 -7 19 15 24 26 20 49 -3 25 -9 31 -29 31 -13 0 -33 -5 -44
-10 -51 -28 -78 43 -43 113 38 76 104 115 104 62 0 -52 73 -45 96 10 21 50 17
73 -15 106 -35 35 -84 38 -146 10z"/>
<path d="M850 1206 c0 -44 5 -78 11 -82 20 -12 29 19 27 86 -3 53 -6 65 -20
68 -16 3 -18 -6 -18 -72z"/>
<path d="M2696 1065 c-15 -14 -30 -25 -35 -25 -4 0 -15 -17 -25 -37 -25 -51
-106 -293 -106 -315 0 -24 42 -33 76 -16 24 11 35 35 89 199 45 132 60 191 53
203 -12 22 -20 20 -52 -9z"/>
<path d="M3823 1083 c-17 -3 -38 -34 -84 -123 -34 -66 -70 -127 -80 -136 -18
-16 -19 -16 -19 19 0 20 11 66 25 103 39 102 32 143 -20 130 -45 -11 -124
-252 -109 -332 11 -61 87 -99 140 -71 24 12 31 13 49 1 30 -20 67 2 78 46 5
19 29 104 53 189 25 85 43 160 40 168 -5 13 -28 15 -73 6z"/>
<path d="M5235 1081 c-86 -21 -135 -75 -135 -149 0 -37 6 -49 45 -91 25 -26
45 -53 45 -59 0 -16 -39 -27 -100 -27 l-55 0 0 -35 c0 -27 6 -37 25 -47 68
-35 186 1 221 67 32 59 21 107 -34 150 -20 16 -27 30 -25 49 3 23 8 27 50 31
32 4 55 14 73 33 33 32 28 53 -20 72 -37 16 -45 17 -90 6z"/>
<path d="M3196 1070 c-15 -5 -36 -16 -46 -25 -21 -19 -115 -347 -106 -370 4
-11 15 -15 38 -13 30 3 34 8 59 73 24 63 29 70 59 76 18 4 42 16 53 27 28 29
7 56 -35 46 l-29 -6 21 41 c16 32 26 41 46 41 37 0 86 52 82 87 -3 27 -6 28
-58 30 -30 1 -68 -2 -84 -7z"/>
<path d="M3423 1070 c-26 -11 -66 -87 -117 -222 -39 -106 -42 -124 -24 -163
11 -24 15 -25 94 -25 87 0 114 12 114 49 0 30 -26 44 -70 38 -22 -3 -40 -1
-40 4 0 6 27 62 60 126 65 127 81 180 59 194 -17 11 -47 10 -76 -1z"/>
<path d="M4019 1064 c-42 -13 -47 -18 -54 -51 -4 -20 -18 -58 -31 -85 -31 -62
-54 -150 -54 -210 0 -44 3 -50 28 -59 56 -22 173 2 187 39 11 30 -13 50 -60
50 -25 -1 -48 1 -51 4 -2 3 3 22 12 42 13 26 24 36 41 36 24 0 73 40 73 59 0
5 -18 11 -40 13 l-39 3 15 32 c12 23 28 36 57 46 45 15 83 57 74 81 -8 20 -93
21 -158 0z"/>
<path d="M4645 1062 c-82 -39 -151 -144 -162 -246 -11 -111 32 -162 132 -154
59 5 124 43 106 61 -6 6 -11 19 -11 29 0 20 -38 25 -69 8 -24 -12 -61 14 -61
44 0 12 12 46 26 75 39 77 98 108 99 50 0 -19 6 -25 27 -27 63 -7 104 93 60
148 -25 31 -94 37 -147 12z"/>
<path d="M4912 1063 c-32 -11 -43 -21 -48 -41 -3 -15 -18 -56 -33 -92 -28 -64
-44 -124 -56 -207 -6 -37 -4 -43 20 -59 21 -13 39 -16 92 -11 81 8 117 34 99
72 -9 19 -18 23 -53 22 -24 0 -46 3 -50 7 -13 12 26 76 46 76 33 0 51 11 67
41 l15 29 -41 0 c-46 0 -47 3 -21 47 13 21 31 33 53 38 45 10 68 32 68 67 0
28 -1 28 -57 27 -32 0 -77 -7 -101 -16z"/>
<path d="M3023 1060 c-25 -10 -43 -36 -69 -102 -21 -52 -34 -62 -34 -25 0 13
-7 44 -16 70 -13 37 -21 47 -38 47 -29 0 -49 -22 -74 -81 -23 -54 -72 -241
-72 -276 0 -21 4 -24 33 -21 27 3 36 10 58 54 14 29 29 62 33 75 6 20 10 12
20 -39 16 -80 34 -100 74 -83 32 14 38 25 103 196 48 126 56 189 24 192 -11 1
-30 -2 -42 -7z"/>
<path d="M4421 1044 c-17 -14 -31 -30 -31 -34 0 -5 -10 -30 -21 -57 l-21 -48
-17 60 c-21 74 -27 85 -51 85 -39 0 -80 -83 -119 -237 -31 -123 -31 -137 1
-141 34 -4 63 27 86 90 9 27 20 48 23 48 4 0 10 -25 14 -55 10 -83 42 -105 89
-62 42 38 149 351 128 372 -13 13 -54 2 -81 -21z"/>
<path d="M1840 1036 c-153 -54 -274 -120 -395 -217 -58 -46 -72 -62 -68 -78 5
-20 7 -20 42 -4 138 61 310 128 419 163 70 23 133 49 140 58 20 26 15 69 -10
86 -29 21 -49 19 -128 -8z"/>
<path d="M2125 880 c-212 -18 -417 -71 -614 -160 -63 -28 -121 -56 -128 -62
-7 -6 -13 -24 -13 -40 0 -23 4 -28 18 -24 37 12 374 66 502 81 74 8 189 18
255 22 113 6 121 8 147 34 46 46 32 120 -27 144 -19 8 -38 14 -42 14 -4 -1
-48 -5 -98 -9z"/>
</g>
</svg>
